<?xml version="1.0" encoding="UTF-8"?> <svg xmlns="http://www.w3.org/2000/svg" viewBox="0 0 125.5 66.61"> <defs> <style>.cls-1{fill:#dcb95b;}</style> </defs> <title>logo</title> <g id="Logo"> <path class="cls-1" d="M64,41.07a1.65,1.65,0,0,1-.07,1.73c-.34.53-1,.66-1.82.4q-2-.6-3.66-1.17c-1.09-.37-2.22-.74-3.4-1.09a9.9,9.9,0,0,0-2.12-.3c-1-.06-2.13-.11-3.33-.13s-2.41,0-3.62,0-2.23.08-3,.17a38.12,38.12,0,0,1-3.1,3.94A17.66,17.66,0,0,1,37,47.11a4.89,4.89,0,0,1,1.15-.3c.45-.07.9-.12,1.33-.17s.83-.08,1.18-.13a1.65,1.65,0,0,0,.59-.13,2.73,2.73,0,0,1,1.47-1.16,5.08,5.08,0,0,1,2.12.43l2.12.86a5.92,5.92,0,0,1,1.34.73,3.83,3.83,0,0,1,.88,1,11.49,11.49,0,0,1,.75,1.43,2.87,2.87,0,0,1,.49,2.09c-.15.51-.77,1.07-1.86,1.69a3.64,3.64,0,0,0-.59.6,13.21,13.21,0,0,0-.81,1.06,13,13,0,0,0-.82,1.26c-.26.44-.48.84-.65,1.19a4,4,0,0,0-.36,1,1.32,1.32,0,0,0,.23.76c.61,1.11.82,1.86.65,2.26s-.78.39-1.83,0a3.71,3.71,0,0,0-1-.2l-1.6-.14a16.79,16.79,0,0,0-1.73,0c-.57,0-1.05.06-1.44.1-.61.09-1.35.23-2.22.43s-1.7.42-2.48.66-1.46.47-2,.67-.84.34-.84.43c-.09.48-.28.75-.56.79s-.77-.17-1.47-.66a7.5,7.5,0,0,1-1.63-1.46,7.82,7.82,0,0,1-1.18-2.09,19.71,19.71,0,0,1-.94-3.25c-.29-1.3-.6-3-1-4.94a9.94,9.94,0,0,1-.39-2.82,3.38,3.38,0,0,1,.78-1.82q.91-1.12,1.53-1c.42.09.58.37.49.86a2.2,2.2,0,0,0,.23,1.52c.29.67.67,1.51,1.15,2.52.47-.35,1-.74,1.73-1.16s1.31-.8,1.92-1.16a1.57,1.57,0,0,1-.91-.93c-.57-.17-1.05-.34-1.44-.49a2.86,2.86,0,0,1-1-.73,7.3,7.3,0,0,1-.92-1.3c-.3-.53-.67-1.23-1.11-2.12l-1.76.5a18.6,18.6,0,0,0-2.29.83c-3.09,1.19-5.5,2.1-7.25,2.72a17.94,17.94,0,0,1-4.11,1.06,3.2,3.2,0,0,1-2.28-.47,8.5,8.5,0,0,1-1.7-1.85c-.48-.71-.65-1.2-.49-1.46s.57-.33,1.27-.2a3.76,3.76,0,0,0,2.68-.66,10.6,10.6,0,0,1,3.39-1.2c1.48-.31,2.9-.59,4.25-.86l4.6-1c1.42-.29,2.45-.48,3.11-.57A5.56,5.56,0,0,1,26,37.49c.09-.35.22-.51.39-.46a5.22,5.22,0,0,1,1.31,1.13,2.31,2.31,0,0,0,.52-1.46c-2-.89-3.11-1.69-3.46-2.42a1.86,1.86,0,0,1,.65-2.23,2.37,2.37,0,0,1,.3-.23,2.83,2.83,0,0,1,.49-.2l.94-.26c.42-.11,1-.26,1.67-.43.3-.05.77-.15,1.4-.3s1.28-.33,1.93-.53,1.25-.41,1.8-.63a2,2,0,0,0,1-.67l-1.31,0c-.65,0-1.35,0-2.09,0l-2.09-.13a3.21,3.21,0,0,1-1.3-.26q-2.82-1.34-2.58-2.49c.15-.77,1.18-1.34,3.1-1.69.87-.18,1.86-.42,3-.73s2.08-.6,2.91-.86a2.64,2.64,0,0,0,1.34-.8A2.22,2.22,0,0,0,36,20.51a33.5,33.5,0,0,1-3.39,1.66,6.29,6.29,0,0,1-2.39.53A4.89,4.89,0,0,1,28,22.11a28.82,28.82,0,0,1-2.77-1.73c-.48-.35-.7-.68-.65-1a.69.69,0,0,1,.58-.6l1.28-.26a4.34,4.34,0,0,0,1.2-.47,8.84,8.84,0,0,1-1.69-2.65,7.1,7.1,0,0,1-.26-2.85,11.06,11.06,0,0,1,.58-2.86,9.65,9.65,0,0,1,.85-1.45q.19-.21.39.33a1.71,1.71,0,0,0,.43.69.78.78,0,0,0,.81.17,17.3,17.3,0,0,0,2.09-.5,15.94,15.94,0,0,0,2.13-.83,21.29,21.29,0,0,0,2.51-1.39c.92-.57,2-1.3,3.2-2.19.35-.31.57-.4.65-.26s-.08.37-.52.73a2.58,2.58,0,0,0-.81.66c-.33.35-.67.75-1,1.19s-.67.91-1,1.4a6.15,6.15,0,0,0-.65,1.32c-.09.18-.28.52-.59,1s-.67,1.09-1.11,1.76l-1.37,2.09c-.48.73-.94,1.4-1.37,2a21.14,21.14,0,0,1,3.3-1.89c.89-.38,1.64-.67,2.25-.9.7-.66,1.34-1.29,1.93-1.89s1.31-1.29,2.18-2.09A10.3,10.3,0,0,0,42,7.85,8.81,8.81,0,0,0,42.93,6a3.47,3.47,0,0,0,.19-1.56,1,1,0,0,0-.55-.86c-.39-.18-.59-.4-.59-.67s.17-.48.52-.66A3.63,3.63,0,0,1,44.3,2a4.85,4.85,0,0,1,2,.66A6.28,6.28,0,0,1,48,4.23a7.3,7.3,0,0,1,1.18,2.56A2.24,2.24,0,0,1,49.07,8a3.61,3.61,0,0,1-1,1.36,16.75,16.75,0,0,1-2.38,1.69q-1.57,1-4.12,2.29a8.05,8.05,0,0,1,2.55,1.1,2.31,2.31,0,0,1,1,2.28,2.13,2.13,0,0,1-.56,1.6,7.54,7.54,0,0,1-2.38,1.19.53.53,0,0,0-.3.36,3.2,3.2,0,0,0-.13.63,1.44,1.44,0,0,0,.07.63.5.5,0,0,0,.29.37,2.87,2.87,0,0,1,.88.6,4.68,4.68,0,0,1,.75.86,3.8,3.8,0,0,1,.49.89,2.11,2.11,0,0,1,.17.7A2,2,0,0,1,44,25.85,6.52,6.52,0,0,1,41.85,27a.66.66,0,0,0-.33.73c0,.36.37.6,1,.73a3.35,3.35,0,0,1,2,1.43,4.6,4.6,0,0,1,.91,2.82,1.08,1.08,0,0,1-.39.86,4.12,4.12,0,0,1-1.63.6,6.41,6.41,0,0,1,.72,1.92,3.66,3.66,0,0,1,.06,1.52l2.16-.16,3.23-.2,3.36-.2,2.55-.16a11.56,11.56,0,0,1,5.13.76A7,7,0,0,1,64,41.07ZM38.65,38.22a2.63,2.63,0,0,0-.16-1.42,2.51,2.51,0,0,0-1.28-1.36c-.3.13-.69.27-1.17.43s-1,.29-1.5.4l-1.47.29A6.1,6.1,0,0,1,32,36.7c-.39.39-.79.84-1.21,1.32a15.81,15.81,0,0,1-1.4,1.46c.48-.13,1.15-.26,2-.4s1.78-.25,2.71-.36l2.65-.3Zm4,14.46c.53-1.15.7-1.86.53-2.12s-.7-.33-1.57-.2c-.31.09-.72.19-1.24.3a16.48,16.48,0,0,0-1.63.43c-.57.17-1.12.37-1.67.59a8.65,8.65,0,0,0-1.4.73,7.6,7.6,0,0,1-.92.47c-.48.22-1,.46-1.7.73l-2,.79c-.67.27-1.23.47-1.66.6a11.87,11.87,0,0,0,.91,2.88.91.91,0,0,0,1.11.44,11.84,11.84,0,0,1,3-.53c1.21-.09,2.24-.16,3.07-.2a4.45,4.45,0,0,0,2.67-1.3A11,11,0,0,0,42.63,52.68Zm-4.7-11.61c-1.78.18-3.2.36-4.24.53s-2,.38-2.94.6c0,.18.1.44.16.8s.12.74.17,1.16.06.82.06,1.19v1A3.53,3.53,0,0,0,33.3,46a7.54,7.54,0,0,0,2.05-1.36A12.91,12.91,0,0,0,37,42.83,5,5,0,0,0,37.93,41.07Z"></path> <path class="cls-1" d="M119.89,25.22q-.14,3.78-.36,6.9t-.65,5.77a38.3,38.3,0,0,1-1.11,5A31.54,31.54,0,0,1,116,47.37a1.56,1.56,0,0,1-1,.93c-.37.09-.77-.24-1.21-1q-1.17-2.06-2.25-3.72a25.77,25.77,0,0,0-2.25-3c0,2,0,3.74-.1,5.24s-.19,2.95-.36,4.34-.39,2.83-.65,4.31-.59,3.17-1,5.08c-.44,2.12-.78,3.1-1,3s-.56-1.56-1-4.21c-.26-1.91-.44-3.7-.53-5.38s-.14-3.55-.16-5.63,0-4.52,0-7.33.07-6.31.07-10.51a5.46,5.46,0,0,0-1.21.76,6.36,6.36,0,0,0-1.37,1.89,34.71,34.71,0,0,0-1.73,4c-.65,1.7-1.44,4-2.35,6.93-.22.7-.48,1-.78.86a8.93,8.93,0,0,1-2-2.19,3.43,3.43,0,0,1-.62-1.19,8.88,8.88,0,0,1-.33-1.43,8.38,8.38,0,0,1-.1-1.26,1.49,1.49,0,0,1,.13-.76c.48-.93.85-1.7,1.11-2.32a22.63,22.63,0,0,0,.85-2.52,6.5,6.5,0,0,0,.39-2.62,3.33,3.33,0,0,0-.91-1.76,4.06,4.06,0,0,1-.72-2.12A4.33,4.33,0,0,1,95.6,23c.39-.75.66-1.12.81-1.1s.28.33.36.9a2.2,2.2,0,0,0,1.11,1.59,4.63,4.63,0,0,1,1.24.86,8.16,8.16,0,0,1,1,1.26,29.2,29.2,0,0,1,2.39-2,10.52,10.52,0,0,0,2.18-2.12,10,10,0,0,0-1.89-6.17,9.76,9.76,0,0,0-3-.29,5.84,5.84,0,0,0-2.75,1,13.66,13.66,0,0,0-2.9,2.62,39.49,39.49,0,0,0-3.43,4.74c-.18.93-.34,2.13-.49,3.61s-.3,3.06-.43,4.74-.24,3.35-.32,5-.15,3.15-.2,4.48A26.26,26.26,0,0,1,89,45.35c-.15,1.26-.37,2.57-.65,3.91s-.62,2.68-1,4a29.31,29.31,0,0,1-1.24,3.42c-.22.48-.46.72-.72.69a3,3,0,0,1-1.31-.82A6.28,6.28,0,0,1,83,55.26a5.25,5.25,0,0,1-.66-1.59,9.83,9.83,0,0,1-.23-2.28c0-.91.07-2,.2-3.42s.26-1.83.39-1.79.18.75.13,2.12.08,2.3.36,2.39.58-.42.88-1.53a27.45,27.45,0,0,0,.75-3.78c.2-1.41.36-3.25.49-5.5s.24-5,.33-8.36.2-7.45.33-12.4c0-1.1.06-2,.06-2.75S86,15,86,14.55a5.88,5.88,0,0,0-.23-1.23,7.83,7.83,0,0,0-.43-1c-.34-.71-.69-1.11-1-1.23s-.57.06-.65.5Q83.19,13.88,82.6,17t-1.24,6.7a11.49,11.49,0,0,1,2.09,4.08,7.1,7.1,0,0,1,.07,3.68c-.4,1.55-.73,2.9-1,4.08l-.78,3.25c-.24,1-.45,1.94-.62,2.85s-.35,1.89-.52,3-.51,1.61-.88,1.52-1.15-1-2.32-2.65a12.83,12.83,0,0,1-1.6-3.18,4.36,4.36,0,0,1-.17-2.79,21.49,21.49,0,0,0,1.51-5.67,6.27,6.27,0,0,0-1.24-4.28,9.06,9.06,0,0,1-1.44-4.37c-.09-1,.13-1.66.65-1.93a1.33,1.33,0,0,1,1.5.14,10.58,10.58,0,0,0,2,1.26,11.09,11.09,0,0,0,2,.59,22.37,22.37,0,0,0,.79-2.78c.26-1.15.51-2.34.75-3.58s.42-2.41.55-3.52a23.66,23.66,0,0,0,.2-2.58A2.25,2.25,0,0,1,83.71,9a2.37,2.37,0,0,1,1.83-.43,4.8,4.8,0,0,1,2.38,1.16,13,13,0,0,1,2.29,2.39A11,11,0,0,1,91.75,15a4,4,0,0,1,.13,2.62,8.68,8.68,0,0,0-.56,2.15c-.15.95-.27,2-.36,3.22.52-1.06,1.06-2.09,1.6-3.09s1-1.91,1.5-2.75.86-1.56,1.21-2.15.59-1,.72-1.3a7.53,7.53,0,0,1,1.73-2.48A5.37,5.37,0,0,1,100,10c1-.22,2.14-.5,3.27-.83s2.22-.69,3.26-1.06,2-.74,2.78-1.1A8.8,8.8,0,0,0,111,6.12a3.45,3.45,0,0,1,2.64-.69,5.19,5.19,0,0,1,2.91,1.29c1.74,1.42,2.7,2.37,2.87,2.85s-.24.84-1.24,1.06a22.08,22.08,0,0,0-4.44,1.4,35.89,35.89,0,0,0-5.48,3.05,13,13,0,0,1,.81,2.22,15.87,15.87,0,0,1,.43,2.09,24.69,24.69,0,0,1,2.45-.9,6.22,6.22,0,0,1,1.73-.3,3.38,3.38,0,0,1,1.3.24,7.26,7.26,0,0,1,1.24.63,22.33,22.33,0,0,1,2.06,1.49,5.41,5.41,0,0,1,1.14,1.26,3.1,3.1,0,0,1,.46,1.42A16.36,16.36,0,0,1,119.89,25.22Zm-5.48,1c-.09-1-.46-1.56-1.11-1.63A7,7,0,0,0,110,25.82q.06,2.79,0,5.31c0,1.68-.11,3.09-.2,4.24a4.16,4.16,0,0,0,1,1.66,5.1,5.1,0,0,0,1.3,1,2.18,2.18,0,0,0,1.21.27.74.74,0,0,0,.69-.53,22.88,22.88,0,0,0,.39-2.82c.09-1.08.14-2.17.16-3.25s0-2.11,0-3.08S114.45,26.84,114.41,26.22Z"></path> </g> </svg> 